<svg version="1" xmlns="http://www.w3.org/2000/svg" width="933.333" height="933.333" viewBox="0 0 700.000000 700.000000"><path d="M95.3 150.1c-3.8 1.1-8.4 5.7-10 10.1-.6 1.9-1.2 9.1-1.2 16.7-.1 11.5-.3 13.2-1.6 12.7-5.8-2.2-13.2-3.7-15.7-3.2-4.5.9-8.8 4.5-10.9 9-1.5 3.4-1.9 6.6-1.9 18.3 0 7.9-.3 14.3-.7 14.3-.5 0-2.6-1.2-4.8-2.5-9.5-5.9-20.6-1.3-23.6 9.8-.8 2.9-1.1 49.6-1 157.1v154.3c.1.7.8 1.3 1.6 1.3 1.3 0 1.5-18 1.5-155.6 0-142.5.1-155.9 1.6-159.1 1.9-4 4.9-6.2 9.7-7.3 4.6-1 8.7.9 12.3 5.6l2.9 3.7.3 23.4c.2 17.7.6 23.3 1.5 23 .9-.3 1.2-10 1.4-38.8.1-21.1.5-40.2.8-42.4 1.6-10.4 13.3-15.1 20.9-8.4 2 1.7 4 4.7 4.6 6.7.6 2.2 1 18.7 1 40.8 0 20.4.3 38.5.6 40.3 1.9 9.2 2.4-3.5 2.4-56.8 0-63.8-.1-62.9 5.5-68.1 2.2-2 3.7-2.5 8.2-2.5 5.2 0 5.7.3 8.8 3.8 1.8 2.1 3.5 5.2 3.9 6.9.3 1.7.6 29.1.6 61 0 45.9.3 57.9 1.3 57.6.9-.4 1.3-10 1.7-41.9.3-28.7.9-42 1.7-43.4 4.1-7.1 12.6-9.6 18.8-5.4 6.6 4.5 6.8 6 6.9 50.7.1 25.9.4 39.6 1.1 39.4 1.2-.2 1.3-2.3 1.5-26.9.2-16.9.3-18.5 2.3-21.4 4.9-7.2 11.5-9 18.1-5 6.6 4.1 6.9 5.7 7.1 42.6.3 37 .2 34.5 1.5 34.5.6 0 1-12.1 1-34.3 0-31.4-.2-34.5-1.9-38.4-4.4-9.5-15.6-12.3-24.4-6.1-1.6 1.1-3 1.8-3.2 1.6-.2-.2-.5-6.4-.6-13.8-.2-15-.8-18.3-4.1-22.1-5.4-6.2-12.5-7.4-20.3-3.4-2.7 1.3-5 2.3-5.1 2.2-.1-.1-.4-6.7-.6-14.7-.5-16.4-1.8-20.6-7.3-24-3.9-2.4-9.8-3.2-14.2-1.9zM616.9 319.4c-.2.2-4.2.6-8.9 1-4.7.3-9.2.7-10 .9-6.7 1.5-9.2 2.2-13.7 4.2-25.7 11.4-32.1 41.7-12.8 60.7 8.5 8.4 15.5 11.3 45.4 18.9 11.1 2.8 21.2 5.9 23.6 7.4 10.4 6.1 9.5 19.5-1.8 26.9-5.4 3.4-13.5 4.9-23.7 4.4-9.6-.6-16.2-3.1-21.2-8.2-3.2-3.1-8.8-14.2-8.8-17.2 0-1.5-1-1.6-8.2-1-14.6 1.1-21.3 1.8-21.7 2.2-1.1 1 2.3 13.5 5.4 20 7.3 15.2 19.9 24 40 27.7 7.9 1.5 27.7 1.6 35.5.2 25.8-4.5 41.7-19.9 42.6-41.5.6-13.3-2.8-22.4-11.4-31-8.5-8.3-16.7-11.8-44.2-18.5-26.5-6.5-33-10.2-33-18.6 0-9.1 9.7-13.9 27-13.5 11.3.3 16.1 1.9 20.8 6.9 2.4 2.5 6.5 12.1 5.6 13-.6.6 27.4-.5 30.7-1.2 1.4-.3-1.4-12-4.1-17.6-7.1-14.6-22.4-23.4-43.1-25.1-4.6-.3-8.7-.8-9-1-.3-.2-.8-.2-1 0z"/><path d="M88.5 322.8c-.3.3-.5 32.6-.5 71.8v71.3l15.5.3 15.5.3v-63.3l30.1.2 30.2.1v31.2l-.1 31.3 3.2.1c9.1.1 27-.1 27.3-.5.3-.3.5-97.6.3-136.2v-7.2h-13.2c-7.3 0-14.3.1-15.4.4-2.1.4-2.1.7-2.2 27.1 0 14.8-.1 27.4-.1 28-.1 1-6.8 1.3-30.1 1.3h-30l-.2-28.3-.3-28.2-14.7-.1c-8.1-.1-15 .1-15.3.4zM242.5 322.8c-.3.3-.5 32.6-.5 71.9V466h6.8c6.4.1 75.4.1 98.7 0h11v-11.8l-.1-11.7-42.7-.3-42.7-.2v-39l38.3-.2 38.2-.3.1-11.8c.1-10.1-.1-11.7-1.5-11.8-.9-.1-18-.2-38.1-.3l-36.5-.1-.3-15.4c-.1-8.8.1-15.7.7-16 .5-.3 19-.6 41-.5 22.1 0 40.2-.2 40.2-.5.1-.4.2-5.8.3-12.2l.1-11.6h-56.2c-31 0-56.5.3-56.8.5zM384.1 394.1V466H413l.2-55.3.3-55.2 3.5 13c1.9 7.1 3.5 13.4 3.7 14 .1.5.9 3.7 1.9 7 .9 3.3 1.7 6.7 1.9 7.5.2.8 1 4 1.9 7 2.8 10.3 10.6 39.5 13.2 49.6 1.4 5.5 2.9 10.6 3.3 11.3.6 1 4.5 1.3 15.2 1.2 7.9-.1 14.5-.3 14.6-.5.2-.2 3.9-13.8 8.3-30.2s9.5-35.5 11.4-42.4c1.9-6.9 4.9-18.3 6.7-25.4l3.4-12.9.3 55.6.2 55.6 10.8.3c5.9.2 12.4.2 14.4 0l3.7-.3v-71.8l-.1-71.9-22.9.1c-12.6 0-23.2.4-23.5.8-.2.5-2 6.4-3.9 13.1-1.8 6.8-6.8 24.4-11 39.3-4.2 14.8-7.8 27.9-8 29-1.6 7-4.2 14.7-4.8 13.8-.4-.6-1.3-3.5-2.1-6.4-.8-3-4.5-16-8.1-28.9-3.7-12.9-7.8-27.3-9.1-32-1.2-4.7-3.6-13-5.2-18.5l-2.9-10-23.1-.2-23.1-.1v71.9zM87 528.7V551h11.8c13.7 0 16.9-1.2 21.7-7.9 2.8-4 3-4.8 3-13.9 0-11-1.3-14.3-7.5-19.4-3.5-2.7-4-2.8-16.3-3.1l-12.7-.4v22.4zm24-12.2c2.6 2.4 3.7 6.1 3.7 12.5 0 11.1-2.7 14.3-12.2 14.5l-6.5.1-.1-4.3v-13.8-10.6c.1-1.7 12.9-.4 15.1 1.6zM358.2 506.8c-.8.2-1.2 2.9-1.2 7.7v7.4l-3.5-2c-2.5-1.5-4.4-1.9-7.2-1.4-7.6 1.2-11 5.2-11.9 14.1-1.6 14.7 10.4 24.1 20.8 16.4l3.1-2.3-.6 2.2c-.5 1.9-.1 2.1 3.7 2.1h4.2v-22c0-14.6-.4-22-1.1-22.1-.5 0-1.9-.2-3-.3-1.2-.1-2.6-.1-3.3.2zm-3.2 20.9c1.8 2.3 2.1 3.8 1.8 8-.5 6.1-2.9 9.3-6.9 9.3-5.6 0-9.1-9.9-5.8-16.3 2.5-4.7 7.6-5.1 10.9-1zM284.7 510.3c-3.1 1.7-3.7 2.6-3.7 5.4 0 2.6-.4 3.3-2 3.3s-2 .7-2 3.5c0 1.9.3 3.4.8 3.4 2.9-.5 3.2.4 3.2 10.4 0 11.5 1 14.1 6 15.2 1.7.4 4.4.4 6 0 2.8-.6 3.1-1 2.7-3.8-.3-2.6-.8-3.1-2.5-2.9-3 .4-3.8-2.1-3.8-11.3l.1-8 2.6.3c2.1.3 2.7-.2 3.1-2.2.6-3.2-.1-4.3-3.2-4.7-2.2-.4-2.5-.9-2.5-5.1 0-2.5-.2-4.9-.5-5.2-.3-.2-2.2.5-4.3 1.7zM378 510.4c-2.6 1.7-3.5 3.1-3.5 5.2-.1 2.2-.6 3-2.2 3.2-1.7.3-2.1.9-1.9 3.5.1 1.8.7 3.2 1.2 3.2 2.5.1 3 1.9 2.9 10.2-.2 12.9 1.6 16.3 8.5 16.1 5.3-.1 6.7-1.2 6.2-4.7-.3-2.5-.8-2.9-3.1-2.8l-2.6.2-.3-9.3c-.3-9.5-.2-9.7 4.1-9.3 1.3.2 1.7-.5 1.7-3.3 0-3.3-.2-3.6-3-3.6-3 0-3-.1-3-5.5 0-3-.4-5.5-.8-5.5s-2.3 1.1-4.2 2.4zM138.5 518.7c-5 1.2-10 9.2-5.7 9.4.9 0 2.5.2 3.5.4.9.2 2.2-.5 2.7-1.6 1.6-2.8 8.5-2.7 10.1.2 1.4 2.8.3 3.5-7.6 5.1-7.9 1.5-12.5 5.7-11.9 10.8.9 7.5 8.6 10.8 16.8 7.1 3.7-1.6 4.6-1.7 4.6-.5 0 1 1.2 1.4 4.5 1.4 4.4 0 4.4 0 3.5-2.6-.6-1.4-1-6.9-1-12.2 0-11.7-.5-13.6-3.7-15.8-2.5-1.6-11.7-2.6-15.8-1.7zm10.9 19.1c-.1.7-.2 2.1-.2 3.2-.4 4.8-9.3 6.4-10.7 1.9-.9-2.6.9-4.4 5.5-5.7 4.1-1.2 5.5-1 5.4.6zM176.4 520.5c-2.2 2.2-2.4 2.3-2.4.5 0-1.7-.7-2-4-2h-4v32h8.5l.3-10.2c.3-12.4 1.6-15.3 6.7-14.5 3 .5 3.3.3 4.3-3.1.6-2 1-3.8.7-4-.2-.2-2-.5-4-.7-2.9-.3-4.3.2-6.1 2zM204.3 518.8c-1.3.4-3.2 1.5-4.3 2.4-1.9 1.7-2 1.7-2-.2 0-1.7-.7-2-4-2h-4v32h8.5l.1-11c.2-12.4 1.3-15 6.6-15 3.8 0 4.2 1.4 4.2 14.7l.1 11.3h8.3l.4-11.6c.3-10 .6-11.8 2.3-13 2.8-2.1 6.3-1.7 7.6.8.7 1.3 1.2 2.4 1.1 2.5-.1.2-.2 5.1-.2 10.9v10.5l4.3-.3 4.2-.3-.1-13.4c-.1-12.9-.2-13.4-2.8-15.9-3.5-3.5-11.4-3.8-14.7-.6l-2.1 2.2-3.6-2.4c-3.5-2.4-5.8-2.8-9.9-1.6zM251.4 519c-4.1 1.3-6.4 4-7.1 8.3-.8 5.3 3 8.7 12.5 11.1 5.7 1.5 7.2 2.2 7.2 3.7 0 4-8.1 4.7-11.2.9-1.2-1.5-2.6-2-5.3-1.8-4.2.3-5 1-3.5 3.7 4.5 8.5 23.3 9.2 27.5 1.1 3.8-7.3.5-12-10.4-15-8.8-2.3-10.4-3.5-7.7-5.6 2.2-1.6 7.3-1 9.6 1.1 1.3 1.2 7.6 1.2 8.8 0 .7-.7-3.1-5.6-5.1-6.7-2.8-1.5-11.5-1.9-15.3-.8zM306.5 519.3c-4.1 1.9-7.3 6.6-5.4 7.8.8.5 2 .9 2.7 1 .6.1 1.8.2 2.5.3.6.1 1.8-.6 2.5-1.6 1.4-1.9 6.7-2.4 9-.9.8.5 1.2 1.7 1 2.7-.2 1.3-2.1 2.2-6.8 3.4-10.4 2.6-13 4.7-13 10.8 0 2.7 3.8 8.1 5.7 8.2.4.1 2.4.3 4.3.6 2.3.3 4.8-.2 7.2-1.4 3-1.6 3.8-1.7 4.2-.6.3.9 2.1 1.4 4.6 1.4 3.8 0 4.1-.2 3.4-2.3-.4-1.2-.8-7.3-.9-13.5-.2-10.6-.4-11.5-2.6-13.8-3.1-3.1-13.6-4.3-18.4-2.1zm12.5 19.5c0 3.9-3.4 7.3-6.7 6.7-3.5-.6-4.5-1.8-4.1-4.6.2-1.5 1.4-2.6 3.8-3.5 5.7-2 7-1.8 7 1.4z"/></svg>