<svg xmlns="http://www.w3.org/2000/svg" id="HEMS" viewBox="0 0 1440 1440"><defs><style>.cls-1{fill:#ef3a30}</style></defs><g id="Light-BG_Slim_" data-name="Light-BG (Slim)"><path id="Turm" d="M364.21 596.13v29.13a2 2 0 0 1-2 2h-1.41a2 2 0 0 1-2-2c-.09-37 0-84.8-.11-121a86.65 86.65 0 0 0-1.4-17.28c-2.72-12.92-13.88-22.47-25.84-22.88-12.66-.44-24.35 8.59-27.63 22.08a70.78 70.78 0 0 0-1.61 16.08c-.17 22.79-.06 45.6-.14 68.4 0 2.9-.38 5.8-.66 8.69a2 2 0 0 1-1.91 1.8 2 2 0 0 1-2-1.82c-.27-3.18-.61-6.37-.61-9.57-.06-47.91 0-95.83-.11-143.77A60.78 60.78 0 0 0 295 410c-3.81-13.75-15.44-22.46-27.88-21.71-12.64.76-24 11.77-26 25.63a97.44 97.44 0 0 0-.54 13.89q-.06 71.32-.08 142.62a62.06 62.06 0 0 1-1.14 9.23 2 2 0 0 1-2 1.68h-.25a2 2 0 0 1-1.87-1.85c-.22-3.32-.52-6.64-.52-10q-.06-107.83 0-215.67v-5.8c-.11-21.09-11.74-35.89-28.13-35.75s-28 14.8-28 36.11q-.17 109.6 0 219.15v11.76a2 2 0 0 1-1.68 1.95h-.28a2 2 0 0 1-2.22-1.54c-.66-3.21-1.52-6.41-1.52-9.61q-.21-71.32-.1-142.61c0-3.86.12-7.76-.23-11.59-1.4-15.1-12.9-27.06-26.45-27.72s-25.88 10-28.5 25.37c-.91 5.28-.86 10.76-.88 16.16q-.07 69.57 0 139.15c0 3.4-.28 6.79-.48 10.2a2 2 0 0 1-2 1.87h-1a2 2 0 0 1-2-2v-8.58c0-23.57.1-47.16-.1-70.73a53.56 53.56 0 0 0-1.9-14.83c-4.1-13.55-15.92-21.81-28.6-20.66-12.27 1.11-23.18 11.86-25 25.22-.68 4.95-.48 10-.48 15.05q0 304.37-.06 608.74c0 4.37.34 8.71.17 13.06a2 2 0 0 1-2 1.88h-2.2a2 2 0 0 1-2-1.9c-.12-3.44-.09-6.83-.09-10.29Q49 892.77 49 669.56c0-56.81-.16-113.64.21-170.45a54.86 54.86 0 0 1 4.6-22.31c8.78-18.85 30.78-24.15 48-12.5l6.36 4.31a2 2 0 0 0 3.09-1.66c0-17.91-.39-34 .12-50.08.59-18.9 13.73-34.16 31.22-34 8.88.1 17.71 4.52 27.53 7.78a2 2 0 0 0 2.58-1.89c0-9.54-.11-20.58 0-31.64.11-7.32 0-14.75 1.28-21.92 3-16.93 15.84-28 31.78-28.37 16.23-.33 30 9.73 33 26.7 2.17 12.43 1.38 25.36 1.73 38.08.16 6.06.08 12.13 0 19.76a2 2 0 0 0 3.21 1.56c13.5-10.78 26.59-14.43 41-6.12 16.44 9.51 18 25.57 17.51 42.46-.38 12-.12 24.1-.08 37.62a2 2 0 0 0 2.88 1.76 18.27 18.27 0 0 0 3.45-2c10.84-9 22.91-11.46 35.65-5.38 13.47 6.43 19.86 18.15 20 32.81.24 34.02.07 68.04.09 102.05z"/><g id="Texte"><g id="HEMS-2" data-name="HEMS"><path id="S" d="M1140.93 862.69l61.79-5.65q5.57 29.28 22.63 43t46 13.73q30.67 0 46.23-12.22t15.57-28.55a26 26 0 0 0-6.55-17.87q-6.54-7.36-22.84-12.83-11.16-3.63-50.85-12.92-51-11.91-71.65-29.29-29-24.44-29-59.57 0-22.62 13.63-42.31t39.25-30q25.63-10.29 61.89-10.3 59.22 0 89.14 24.44t31.42 65.23l-63.49 2.63q-4.08-22.82-17.49-32.82t-40.22-10q-27.67 0-43.33 10.71Q1213 725 1213 736.47q0 10.5 9.44 18 12 9.49 58.35 19.79t68.54 21.31q22.2 11 34.75 30.09t12.55 47.16q0 25.46-15 47.66t-42.48 33q-27.47 10.81-68.43 10.81-59.64 0-91.6-25.95t-38.19-75.65z" class="cls-1"/><path id="M" d="M790.19 959V663h95l57.06 202 56.42-202H1094v296h-59V726l-62.46 233H911.4l-62.21-233v233z" class="cls-1"/><path id="E" d="M498 959V663h233.2v50H561.51v65.64H719.4v49.88H561.51v80.58h175.7V959z" class="cls-1"/><path id="H" d="M181 959V663h63.5v116.48h124.37V663h63.5v296h-63.5V829.57H244.45V959z" class="cls-1"/></g><text font-family="Arial-BoldMT,Arial" font-size="128.02" font-weight="700" transform="translate(169.37 1133.81)">Darmstadt</text></g></g></svg>